<svg width="16" height="16" viewBox="0 0 16 16" fill="none" xmlns="http://www.w3.org/2000/svg">
<path d="M16 7.87126C16 9.97375 15.1678 11.9504 13.6569 13.4371C12.1458 14.9238 10.1369 15.7425 8 15.7425C6.50409 15.7425 5.07116 15.3408 3.82756 14.5901L4.74475 13.6876C5.71069 14.213 6.82037 14.5126 8 14.5126C11.722 14.5126 14.75 11.5333 14.75 7.87126C14.75 6.71062 14.4455 5.61879 13.9115 4.66843L14.8287 3.766C15.5917 4.98955 16 6.39943 16 7.87126ZM0.910688 15.7161L0.0268125 14.8465L1.91831 12.9854C0.677094 11.5611 0 9.76741 0 7.87126C0 5.76878 0.832156 3.79214 2.34313 2.30542C3.85416 0.818765 5.86312 0 8 0C9.92716 0 11.7502 0.666198 13.1978 1.88744L15.0893 0.026381L15.9732 0.896033L0.910688 15.7161ZM2.80791 12.1101L12.3082 2.76272C11.1385 1.80606 9.63641 1.22989 8 1.22989C4.27803 1.22989 1.25 4.20919 1.25 7.87126C1.25 9.48134 1.83556 10.9592 2.80791 12.1101Z" fill="#777777"/>
</svg>
