<svg width="64" height="53" viewBox="0 0 64 53" fill="none" xmlns="http://www.w3.org/2000/svg">
<path d="M8.24 48.672C8.16 47.712 7.584 46.768 6 46.688C6.976 46.56 8.32 44.32 7.744 42.656C7.264 41.312 5.824 41.84 4.976 42.096C4.816 43.376 5.184 45.728 3.76 46.032C3.696 45.36 3.824 44.24 3.648 43.072C3.312 41.136 0.944 42.032 0.4 42.272C0.608 44.416 0.576 44.992 0.576 47.568C0.592 48.448 0.496 49.84 0.576 50.592C0.8 52.592 3.184 52.064 3.84 51.376C3.84 50.528 3.824 48.8 3.776 47.84C4.832 47.76 5.024 48.064 5.056 50.304C5.072 52.544 7.728 52.128 8.512 51.36C8.24 50.528 8.32 49.472 8.24 48.672ZM9.62812 47.024C9.62812 51.664 12.0281 52.048 13.7081 52C15.2601 52 17.8041 51.568 17.8201 47.024C17.8041 43.136 16.0761 41.76 13.7561 41.76C11.3081 41.76 9.62812 43.264 9.62812 47.024ZM13.7561 44.368C13.9321 44.368 14.6041 44.112 14.6041 46.912C14.6041 48.736 14.3161 49.776 13.7401 49.776C13.2601 49.776 12.8761 49.344 12.9241 46.912C12.9241 44.704 13.4841 44.368 13.7561 44.368ZM21.1122 44.704C21.1122 45.616 21.0962 46.624 21.1442 49.728C21.1602 50.976 21.2082 52 22.6482 51.968C23.9282 51.968 24.2482 51.456 24.3922 51.296C24.4402 49.904 24.3442 46.864 24.3122 44.752C24.6642 44.752 25.0002 44.752 25.3042 44.736C26.3282 44.704 26.6802 44.096 26.6642 43.248C26.6482 42.288 25.8642 41.776 24.7762 41.776H21.7362C19.3202 41.792 19.1602 41.792 18.9682 41.776C18.5202 43.664 18.7922 44.672 20.6322 44.704H21.1122ZM33.2548 41.84C32.1348 41.728 29.4308 41.776 27.5588 41.856C27.7668 43.984 27.7828 46.72 27.7508 48.656C27.7828 50.512 27.6228 51.808 29.5748 51.936C30.8548 52.032 31.5748 52.032 32.7268 51.936C34.2948 51.808 34.9348 50.96 34.1828 49.104C32.8868 49.296 31.6868 49.344 30.9348 49.2C30.9348 48.976 30.9028 48.272 30.9348 48.096C31.6548 48.096 32.4388 48.064 33.1268 48.064C34.5508 48.064 34.4068 45.776 33.1108 45.776C32.1828 45.728 31.7668 45.824 30.9028 45.744V44.48C31.8788 44.4 32.3108 44.448 33.1268 44.48C34.6628 44.528 34.6628 42.16 33.2548 41.84ZM38.2527 38.352C37.1967 39.04 37.2607 40.08 38.0127 40.704C38.8607 41.312 40.5247 41.12 41.6447 40.624C42.6687 40.16 43.0687 39.104 41.9807 38.32C40.3647 39.168 39.2927 38.736 38.2527 38.352ZM43.9487 43.2C43.9487 42.24 43.3407 41.776 42.3807 41.776C41.2607 41.776 40.6847 42.064 40.3487 43.088C39.9487 44.336 39.3567 46.256 39.0207 47.584C39.0207 47.008 39.1167 43.616 39.1167 43.2C39.1167 42.144 38.5567 41.776 37.6127 41.776C36.9567 41.776 35.7887 42.192 35.7887 42.192C35.8847 42.912 35.9647 43.328 35.9807 44.272C36.0127 45.264 35.9807 46.848 36.0767 49.984C36.1247 51.52 36.6207 52.032 37.8687 51.984C40.1087 51.904 40.2527 47.776 40.8607 46.272C40.8607 46.96 40.8287 49.344 40.8287 50.144C40.8287 51.232 40.9247 51.984 42.1887 51.984C43.2767 51.984 43.9007 51.616 44.0927 51.28C43.9647 50.8 43.9167 47.888 43.9167 45.6C43.9167 44.592 43.9327 43.712 43.9487 43.2ZM53.2181 48.672C53.1381 47.712 52.5621 46.768 50.9781 46.688C51.9541 46.56 53.2981 44.32 52.7221 42.656C52.2421 41.312 50.8021 41.84 49.9541 42.096C49.7941 43.376 50.1621 45.728 48.7381 46.032C48.6741 45.36 48.8021 44.24 48.6261 43.072C48.2901 41.136 45.9221 42.032 45.3781 42.272C45.5861 44.416 45.5541 44.992 45.5541 47.568C45.5701 48.448 45.4741 49.84 45.5541 50.592C45.7781 52.592 48.1621 52.064 48.8181 51.376C48.8181 50.528 48.8021 48.8 48.7541 47.84C49.8101 47.76 50.0021 48.064 50.0341 50.304C50.0501 52.544 52.7061 52.128 53.4901 51.36C53.2181 50.528 53.2981 49.472 53.2181 48.672ZM62.9263 51.296C62.7023 50.672 62.7183 50.368 62.6703 49.472C62.5423 47.136 62.5103 44.88 61.7423 43.328C60.4463 41.04 57.1023 41.664 55.4863 42.816C55.3423 45.584 54.8623 46.72 54.5583 49.808C54.3343 52.064 56.2223 52.688 57.9823 51.584C57.9823 51.312 57.9823 50.368 58.0623 50.144C58.2703 50.144 59.0543 50.16 59.3583 50.16C59.3583 50.16 59.2783 51.088 59.7263 51.584C60.5263 52.496 62.3663 52.224 62.9263 51.296ZM58.1743 48.144C58.2863 47.28 58.2863 45.488 58.3343 45.104C58.4143 45.04 58.9583 45.072 59.0223 45.152C59.2143 45.904 59.2143 47.28 59.2623 48.144H58.1743Z" fill="#1A212F"/>
<path d="M38.9999 6.99531L45.5758 0.418766C46.4703 -0.475816 47.9999 0.157766 47.9999 1.423V18.9964C47.9998 13.2963 43.4868 9.82971 38.9999 6.99531Z" fill="#FF7236"/>
<path d="M48 18.9966C48 27.834 40.8366 34.998 32.0001 34.998C23.1637 34.998 16.0002 27.8339 16.0002 18.9966C16.0002 10.1593 23.1636 3.99524 32.0001 3.99524C40.8367 3.99524 48 10.1592 48 18.9966Z" fill="#FFAA50"/>
<path d="M25 18.9964C25 11.2947 29.4219 5.62687 35.3103 4.29649C34.2417 4.1004 33.1354 3.99505 32 3.99505C29.0556 3.99505 26.3064 4.6923 23.9366 5.93182L18.4241 0.418766C17.5296 -0.475816 16 0.157766 16 1.423V18.9964C16 18.6357 16 18.6377 16 18.9964C16 27.8338 23.1634 34.9978 31.9999 34.9978C33.1354 34.9978 34.2417 34.8756 35.3102 34.6508C29.4219 33.1252 25 26.6981 25 18.9964Z" fill="#FF7236"/>
<path d="M28.4999 28.9973C30.4329 28.9973 31.9999 27.6541 31.9999 25.9971C31.9999 24.3401 30.4329 22.9968 28.4999 22.9968C26.567 22.9968 25 24.3401 25 25.9971C25 27.6541 26.567 28.9973 28.4999 28.9973Z" fill="#FFFDFB"/>
<path d="M35.5002 28.9973C37.4332 28.9973 39.0002 27.6541 39.0002 25.9971C39.0002 24.3401 37.4332 22.9968 35.5002 22.9968C33.5673 22.9968 32.0003 24.3401 32.0003 25.9971C32.0003 27.6541 33.5673 28.9973 35.5002 28.9973Z" fill="#FFFDFB"/>
<path d="M32.0002 25.9977C33.1048 25.9977 34.0002 25.1022 34.0002 23.9975C34.0002 22.8928 33.1048 21.9973 32.0002 21.9973C30.8956 21.9973 30.0002 22.8928 30.0002 23.9975C30.0002 25.1022 30.8956 25.9977 32.0002 25.9977Z" fill="#FF913C"/>
<path d="M26.0002 19.9965C25.4474 19.9965 25.0002 19.5487 25.0002 18.9964V17.9964C25.0002 17.4441 25.4475 16.9963 26.0002 16.9963C26.5528 16.9963 27.0001 17.4441 27.0001 17.9964V18.9964C27.0001 19.5487 26.5528 19.9965 26.0002 19.9965Z" fill="#1A212F"/>
<path d="M38 19.9965C37.4472 19.9965 37 19.5487 37 18.9964V17.9964C37 17.4441 37.4473 16.9963 38 16.9963C38.5527 16.9963 38.9999 17.4441 38.9999 17.9964V18.9964C39 19.5487 38.5527 19.9965 38 19.9965Z" fill="#1A212F"/>
</svg>
