<svg width="42" height="43" viewBox="0 0 42 43" fill="none" xmlns="http://www.w3.org/2000/svg">
<g filter="url(#filter0_d)">
<path d="M38 17.1311C38 21.6719 36.2317 25.9406 33.0208 29.1519C29.8108 32.362 25.5421 34.1303 21.0021 34.1311H21C16.4592 34.1311 12.1898 32.3628 8.97917 29.1519C5.76833 25.9406 4 21.6719 4 17.1311C4 12.5903 5.76833 8.32086 8.97917 5.11028C12.1898 1.89943 16.4592 0.131104 21 0.131104H21.0021C25.5421 0.131882 29.8108 1.90021 33.0208 5.11028C36.2317 8.32086 38 12.5903 38 17.1311Z" fill="#FFFEFD"/>
</g>
<path d="M27.4639 14.897C24.6376 16.4538 25.0355 21.1484 28.0719 21.2011C29.3815 21.2239 30.5315 20.2591 31.0573 19.0092C32.2716 16.1225 29.8905 13.5598 27.4639 14.897Z" fill="#FF7236"/>
<path d="M24.5788 15.4274C27.9375 15.4858 29.0391 9.79975 25.8639 8.80662C24.4173 8.35429 22.7469 9.35031 22.1844 11.2143C21.5533 13.3036 22.6905 15.3946 24.5788 15.4274Z" fill="#FF7236"/>
<path d="M23.5438 25.5647C23.0795 25.4277 22.2531 25.3302 21.3867 25.3032C20.471 25.2739 19.5109 25.3228 18.8875 25.4838C17.2039 25.9216 14.9426 24.7525 15.4824 22.4154C15.9816 20.2549 17.6423 20.4073 18.0701 18.359C18.5012 16.2889 20.0577 15.3132 21.553 15.4176C22.9369 15.5144 24.2682 16.5367 24.6031 18.473C24.9594 20.5363 26.6208 20.4405 27.0465 22.6164C27.5091 24.9727 25.2052 26.0563 23.5438 25.5647Z" fill="#FF7236"/>
<path d="M18.6671 15.3249C19.6172 15.3414 20.4424 14.8038 20.91 13.9671C22.3001 11.4794 20.1449 7.96456 17.6051 8.66516C14.3929 9.5499 15.3103 15.2666 18.6671 15.3249Z" fill="#FF7236"/>
<path d="M17.0844 19.1424C18.2072 16.5225 15.7052 13.2549 13.2467 14.2266C10.2853 15.397 11.4938 20.6877 14.7273 20.7439C15.765 20.762 16.6576 20.1384 17.0844 19.1424Z" fill="#FF7236"/>
<path d="M23.5438 25.5647C23.0796 25.4277 22.2531 25.3302 21.3868 25.3032L21.5531 15.4176C22.937 15.5144 24.2683 16.5367 24.6032 18.473C24.9595 20.5364 26.6209 20.4405 27.0466 22.6164C27.5092 24.9727 25.2052 26.0564 23.5438 25.5647Z" fill="#FF7236"/>
<defs>
<filter id="filter0_d" x="0" y="0.131104" width="42" height="42" filterUnits="userSpaceOnUse" color-interpolation-filters="sRGB">
<feFlood flood-opacity="0" result="BackgroundImageFix"/>
<feColorMatrix in="SourceAlpha" type="matrix" values="0 0 0 0 0 0 0 0 0 0 0 0 0 0 0 0 0 0 127 0"/>
<feOffset dy="4"/>
<feGaussianBlur stdDeviation="2"/>
<feColorMatrix type="matrix" values="0 0 0 0 0 0 0 0 0 0 0 0 0 0 0 0 0 0 0.25 0"/>
<feBlend mode="normal" in2="BackgroundImageFix" result="effect1_dropShadow"/>
<feBlend mode="normal" in="SourceGraphic" in2="effect1_dropShadow" result="shape"/>
</filter>
</defs>
</svg>
